# xmcd
#
# Track frame offsets:
#	183
#	14973
#	27250
#	37975
#	49543
#	60418
#	76233
#	88900
#	97533
#	109458
#	121250
#	133368
#	144533
#	153623
#	164925
#	175858
#	188203
#	200908
#	213403
#	224338
#	240280
#	254100
#
# Disc length: 3551 seconds
#
# Revision: 0
# Processed by: cddbd v1.4PL0 Copyright (c) Steve Scherf et al.
# Submitted via: dBpowerAMP V4.0
#
DISCID=490ddd16
DTITLE=Brenda Lee - Country Gold
DYEAR=1900
DGENRE=Country
TTITLE0=Brenda Lee - Johnny One Time
TTITLE1=Brenda Lee - All Alone Am I
TTITLE2=Brenda Lee - Sweet Nothin's
TTITLE3=Brenda Lee - As Usual
TTITLE4=Brenda Lee - Dum Dum
TTITLE5=Brenda Lee - You Can Depend On Me
TTITLE6=Brenda Lee - Too Many Rivers
TTITLE7=Brenda Lee - My Whole World Is Falling Down
TTITLE8=Brenda Lee - Break To Me Gently
TTITLE9=Brenda Lee - I'm Sorry
TTITLE10=Brenda Lee - Thanks A Lot
TTITLE11=Brenda Lee - That's All You Gotta Do
TTITLE12=Brenda Lee - Coming On Strong
TTITLE13=Brenda Lee - Losing You
TTITLE14=Brenda Lee - Fool No.1
TTITLE15=Brenda Lee - Jambalaya (On The Bayou)
TTITLE16=Brenda Lee - Emotions
TTITLE17=Brenda Lee - Just Out Of Reach
TTITLE18=Brenda Lee - Anybody But Me
TTITLE19=Brenda Lee - We Three (My Echo, My Shadow, And Me)
TTITLE20=Brenda Lee - I Want To Be Wanted
TTITLE21=Brenda Lee - You Always Hurt The One You Love
EXTD=
EXTT0=
EXTT1=
EXTT2=
EXTT3=
EXTT4=
EXTT5=
EXTT6=
EXTT7=
EXTT8=
EXTT9=
EXTT10=
EXTT11=
EXTT12=
EXTT13=
EXTT14=
EXTT15=
EXTT16=
EXTT17=
EXTT18=
EXTT19=
EXTT20=
EXTT21=
PLAYORDER=
